<?xml version="1.0" encoding="UTF-8" standalone="no"?>
<!-- Created with Inkscape (http://www.inkscape.org/) -->

<svg
   xmlns:dc="http://purl.org/dc/elements/1.1/"
   xmlns:cc="http://creativecommons.org/ns#"
   xmlns:rdf="http://www.w3.org/1999/02/22-rdf-syntax-ns#"
   xmlns:svg="http://www.w3.org/2000/svg"
   xmlns="http://www.w3.org/2000/svg"
   xmlns:sodipodi="http://sodipodi.sourceforge.net/DTD/sodipodi-0.dtd"
   xmlns:inkscape="http://www.inkscape.org/namespaces/inkscape"
   width="744.09448819"
   height="1052.3622047"
   id="svg2"
   version="1.1"
   inkscape:version="0.48.2 r9819"
   sodipodi:docname="room.svg"
   inkscape:export-filename="E:\workspace\OTMA\pictures\room.png"
   inkscape:export-xdpi="90"
   inkscape:export-ydpi="90">
  <defs
     id="defs4" />
  <sodipodi:namedview
     id="base"
     pagecolor="#ffffff"
     bordercolor="#666666"
     borderopacity="1.0"
     inkscape:pageopacity="0.0"
     inkscape:pageshadow="2"
     inkscape:zoom="0.49497475"
     inkscape:cx="551.24028"
     inkscape:cy="434.52174"
     inkscape:document-units="px"
     inkscape:current-layer="layer1"
     showgrid="false"
     inkscape:window-width="1600"
     inkscape:window-height="848"
     inkscape:window-x="-8"
     inkscape:window-y="-8"
     inkscape:window-maximized="1">
    <inkscape:grid
       type="xygrid"
       id="grid2987" />
  </sodipodi:namedview>
  <metadata
     id="metadata7">
    <rdf:RDF>
      <cc:Work
         rdf:about="">
        <dc:format>image/svg+xml</dc:format>
        <dc:type
           rdf:resource="http://purl.org/dc/dcmitype/StillImage" />
        <dc:title></dc:title>
      </cc:Work>
    </rdf:RDF>
  </metadata>
  <g
     inkscape:label="Layer 1"
     inkscape:groupmode="layer"
     id="layer1">
    <g
       id="g5001"
       transform="matrix(0.91681096,0,0,1,60.668575,0)">
      <rect
         y="130.47411"
         x="170.71429"
         height="540"
         width="558.57141"
         id="rect2985"
         style="fill:#000000;fill-opacity:1;stroke:none" />
      <rect
         y="154.64079"
         x="209.28571"
         height="298.46378"
         width="480"
         id="rect3763"
         style="fill:#fffcfc;fill-opacity:1;stroke:#000000;stroke-width:4.65901899;stroke-miterlimit:4;stroke-opacity:1;stroke-dasharray:none" />
      <g
         style="opacity:0.46902651"
         transform="matrix(2,0,0,2,-170.71429,-92.41223)"
         id="g4419">
        <g
           id="g4395">
          <path
             sodipodi:nodetypes="cccc"
             inkscape:connector-curvature="0"
             id="path3767-22"
             d="m 255,347.36218 c -3.98863,-17.88928 5.34812,-37.21932 10,-50 4.55804,12.84345 14.05926,33.70963 10,50 z"
             style="fill:#4c4545;fill-opacity:1;stroke:#ffffff;stroke-width:1px;stroke-linecap:butt;stroke-linejoin:miter;stroke-opacity:1" />
          <path
             transform="translate(45,-4.999997)"
             d="m 231.88808,302.36218 c 0,6.56561 -5.32247,11.88809 -11.88808,11.88809 -6.56561,0 -11.88808,-5.32248 -11.88808,-11.88809 0,-6.5656 5.32247,-11.88808 11.88808,-11.88808 6.56561,0 11.88808,5.32248 11.88808,11.88808 z"
             sodipodi:ry="11.888083"
             sodipodi:rx="11.888083"
             sodipodi:cy="302.36218"
             sodipodi:cx="220"
             id="path3765-23"
             style="fill:#4c4545;fill-opacity:1;stroke:#ffffff;stroke-width:2;stroke-miterlimit:4;stroke-opacity:1;stroke-dasharray:none"
             sodipodi:type="arc" />
        </g>
        <g
           id="g4345">
          <path
             sodipodi:nodetypes="cccc"
             inkscape:connector-curvature="0"
             id="path3767-22-8"
             d="m 225,347.36218 c -3.98863,-17.88928 5.34812,-37.21932 10,-50 4.55804,12.84345 14.05926,33.70963 10,50 z"
             style="fill:#e4ee22;fill-opacity:1;stroke:#ffffff;stroke-width:1px;stroke-linecap:butt;stroke-linejoin:miter;stroke-opacity:1" />
        </g>
        <path
           sodipodi:type="arc"
           style="fill:#e4ee22;fill-opacity:1;stroke:#ffffff;stroke-width:2;stroke-miterlimit:4;stroke-opacity:1;stroke-dasharray:none"
           id="path3765-23-6"
           sodipodi:cx="220"
           sodipodi:cy="302.36218"
           sodipodi:rx="11.888083"
           sodipodi:ry="11.888083"
           d="m 231.88808,302.36218 c 0,6.56561 -5.32247,11.88809 -11.88808,11.88809 -6.56561,0 -11.88808,-5.32248 -11.88808,-11.88809 0,-6.5656 5.32247,-11.88808 11.88808,-11.88808 6.56561,0 11.88808,5.32248 11.88808,11.88808 z"
           transform="translate(15,-4.999997)" />
        <g
           id="g4399">
          <path
             sodipodi:nodetypes="cccc"
             inkscape:connector-curvature="0"
             id="path3767-22-8-6"
             d="m 285,347.36218 c -3.98863,-17.88928 5.34812,-37.21932 10,-50 4.55804,12.84345 14.05926,33.70963 10,50 z"
             style="fill:#3042c4;fill-opacity:1;stroke:#ffffff;stroke-width:1px;stroke-linecap:butt;stroke-linejoin:miter;stroke-opacity:1" />
          <path
             transform="translate(75,-4.999997)"
             d="m 231.88808,302.36218 c 0,6.56561 -5.32247,11.88809 -11.88808,11.88809 -6.56561,0 -11.88808,-5.32248 -11.88808,-11.88809 0,-6.5656 5.32247,-11.88808 11.88808,-11.88808 6.56561,0 11.88808,5.32248 11.88808,11.88808 z"
             sodipodi:ry="11.888083"
             sodipodi:rx="11.888083"
             sodipodi:cy="302.36218"
             sodipodi:cx="220"
             id="path3765-23-6-7"
             style="fill:#3042c4;fill-opacity:1;stroke:#ffffff;stroke-width:2;stroke-miterlimit:4;stroke-opacity:1;stroke-dasharray:none"
             sodipodi:type="arc" />
        </g>
        <g
           id="g4410">
          <g
             id="g4407">
            <path
               style="fill:#4c4545;fill-opacity:1;stroke:#ffffff;stroke-width:1px;stroke-linecap:butt;stroke-linejoin:miter;stroke-opacity:1"
               d="m 345,347.36218 c -3.98863,-17.88928 5.34812,-37.21932 10,-50 4.55804,12.84345 14.05926,33.70963 10,50 z"
               id="path3767-22-2"
               inkscape:connector-curvature="0"
               sodipodi:nodetypes="cccc" />
          </g>
          <path
             transform="translate(135,-4.999997)"
             d="m 231.88808,302.36218 c 0,6.56561 -5.32247,11.88809 -11.88808,11.88809 -6.56561,0 -11.88808,-5.32248 -11.88808,-11.88809 0,-6.5656 5.32247,-11.88808 11.88808,-11.88808 6.56561,0 11.88808,5.32248 11.88808,11.88808 z"
             sodipodi:ry="11.888083"
             sodipodi:rx="11.888083"
             sodipodi:cy="302.36218"
             sodipodi:cx="220"
             id="path3765-23-9"
             style="fill:#4c4545;fill-opacity:1;stroke:#ffffff;stroke-width:2;stroke-miterlimit:4;stroke-opacity:1;stroke-dasharray:none"
             sodipodi:type="arc" />
        </g>
        <g
           id="g4403">
          <path
             sodipodi:nodetypes="cccc"
             inkscape:connector-curvature="0"
             id="path3767-22-8-5"
             d="m 315,347.36218 c -3.98863,-17.88928 5.34812,-37.21932 10,-50 4.55804,12.84345 14.05926,33.70963 10,50 z"
             style="fill:#4c4545;fill-opacity:1;stroke:#ffffff;stroke-width:1px;stroke-linecap:butt;stroke-linejoin:miter;stroke-opacity:1" />
          <path
             transform="translate(105,-4.999997)"
             d="m 231.88808,302.36218 c 0,6.56561 -5.32247,11.88809 -11.88808,11.88809 -6.56561,0 -11.88808,-5.32248 -11.88808,-11.88809 0,-6.5656 5.32247,-11.88808 11.88808,-11.88808 6.56561,0 11.88808,5.32248 11.88808,11.88808 z"
             sodipodi:ry="11.888083"
             sodipodi:rx="11.888083"
             sodipodi:cy="302.36218"
             sodipodi:cx="220"
             id="path3765-23-6-9"
             style="fill:#4c4545;fill-opacity:1;stroke:#ffffff;stroke-width:2;stroke-miterlimit:4;stroke-opacity:1;stroke-dasharray:none"
             sodipodi:type="arc" />
        </g>
        <g
           id="g4415">
          <path
             sodipodi:nodetypes="cccc"
             inkscape:connector-curvature="0"
             id="path3767-22-8-6-1"
             d="m 375,347.36218 c -3.98863,-17.88928 5.34812,-37.21932 10,-50 4.55804,12.84345 14.05926,33.70963 10,50 z"
             style="fill:#e51a1a;fill-opacity:1;stroke:#ffffff;stroke-width:1px;stroke-linecap:butt;stroke-linejoin:miter;stroke-opacity:1" />
          <path
             transform="translate(165,-4.999997)"
             d="m 231.88808,302.36218 c 0,6.56561 -5.32247,11.88809 -11.88808,11.88809 -6.56561,0 -11.88808,-5.32248 -11.88808,-11.88809 0,-6.5656 5.32247,-11.88808 11.88808,-11.88808 6.56561,0 11.88808,5.32248 11.88808,11.88808 z"
             sodipodi:ry="11.888083"
             sodipodi:rx="11.888083"
             sodipodi:cy="302.36218"
             sodipodi:cx="220"
             id="path3765-23-6-7-3"
             style="fill:#e51a1a;fill-opacity:1;stroke:#ffffff;stroke-width:2;stroke-miterlimit:4;stroke-opacity:1;stroke-dasharray:none"
             sodipodi:type="arc" />
        </g>
        <path
           style="fill:#000000;fill-opacity:1;stroke:#ffffff;stroke-width:1px;stroke-linecap:butt;stroke-linejoin:miter;stroke-opacity:1"
           d="m 210,360.4741 c -3.98863,-17.88928 5.34812,-37.21932 10,-50 4.55804,12.84345 14.05926,33.70963 10,50 z"
           id="path3767"
           inkscape:connector-curvature="0"
           sodipodi:nodetypes="cccc" />
        <path
           sodipodi:type="arc"
           style="fill:#000000;fill-opacity:1;stroke:#ffffff;stroke-width:2;stroke-miterlimit:4;stroke-opacity:1;stroke-dasharray:none"
           id="path3765"
           sodipodi:cx="220"
           sodipodi:cy="302.36218"
           sodipodi:rx="11.888083"
           sodipodi:ry="11.888083"
           d="m 231.88808,302.36218 c 0,6.56561 -5.32247,11.88809 -11.88808,11.88809 -6.56561,0 -11.88808,-5.32248 -11.88808,-11.88809 0,-6.5656 5.32247,-11.88808 11.88808,-11.88808 6.56561,0 11.88808,5.32248 11.88808,11.88808 z"
           transform="translate(0,8.1119165)" />
        <g
           id="g4362">
          <path
             sodipodi:nodetypes="cccc"
             inkscape:connector-curvature="0"
             id="path3767-4"
             d="m 240,360.4741 c -3.98863,-17.88928 5.34812,-37.21932 10,-50 4.55804,12.84345 14.05926,33.70963 10,50 z"
             style="fill:#44c430;fill-opacity:1;stroke:#ffffff;stroke-width:1px;stroke-linecap:butt;stroke-linejoin:miter;stroke-opacity:1" />
          <path
             transform="translate(30,8.1119165)"
             d="m 231.88808,302.36218 c 0,6.56561 -5.32247,11.88809 -11.88808,11.88809 -6.56561,0 -11.88808,-5.32248 -11.88808,-11.88809 0,-6.5656 5.32247,-11.88808 11.88808,-11.88808 6.56561,0 11.88808,5.32248 11.88808,11.88808 z"
             sodipodi:ry="11.888083"
             sodipodi:rx="11.888083"
             sodipodi:cy="302.36218"
             sodipodi:cx="220"
             id="path3765-7"
             style="fill:#44c430;fill-opacity:1;stroke:#ffffff;stroke-width:2;stroke-miterlimit:4;stroke-opacity:1;stroke-dasharray:none"
             sodipodi:type="arc" />
        </g>
        <g
           id="g4366"
           transform="translate(0,1.8880826)">
          <path
             sodipodi:nodetypes="cccc"
             inkscape:connector-curvature="0"
             id="path3767-48"
             d="m 270,360.4741 c -3.98863,-17.88928 5.34812,-37.21932 10,-50 4.55804,12.84345 14.05926,33.70963 10,50 z"
             style="fill:#000000;fill-opacity:1;stroke:#ffffff;stroke-width:1px;stroke-linecap:butt;stroke-linejoin:miter;stroke-opacity:1" />
          <path
             transform="translate(60,8.1119165)"
             d="m 231.88808,302.36218 c 0,6.56561 -5.32247,11.88809 -11.88808,11.88809 -6.56561,0 -11.88808,-5.32248 -11.88808,-11.88809 0,-6.5656 5.32247,-11.88808 11.88808,-11.88808 6.56561,0 11.88808,5.32248 11.88808,11.88808 z"
             sodipodi:ry="11.888083"
             sodipodi:rx="11.888083"
             sodipodi:cy="302.36218"
             sodipodi:cx="220"
             id="path3765-9"
             style="fill:#000000;fill-opacity:1;stroke:#ffffff;stroke-width:2;stroke-miterlimit:4;stroke-opacity:1;stroke-dasharray:none"
             sodipodi:type="arc" />
        </g>
        <g
           id="g4370">
          <path
             sodipodi:nodetypes="cccc"
             inkscape:connector-curvature="0"
             id="path3767-45"
             d="m 300,360.4741 c -3.98863,-17.88928 5.34812,-37.21932 10,-50 4.55804,12.84345 14.05926,33.70963 10,50 z"
             style="fill:#c4309d;fill-opacity:1;stroke:#ffffff;stroke-width:1px;stroke-linecap:butt;stroke-linejoin:miter;stroke-opacity:1" />
          <path
             transform="translate(90,8.1119165)"
             d="m 231.88808,302.36218 c 0,6.56561 -5.32247,11.88809 -11.88808,11.88809 -6.56561,0 -11.88808,-5.32248 -11.88808,-11.88809 0,-6.5656 5.32247,-11.88808 11.88808,-11.88808 6.56561,0 11.88808,5.32248 11.88808,11.88808 z"
             sodipodi:ry="11.888083"
             sodipodi:rx="11.888083"
             sodipodi:cy="302.36218"
             sodipodi:cx="220"
             id="path3765-2"
             style="fill:#c4309d;fill-opacity:1;stroke:#ffffff;stroke-width:2;stroke-miterlimit:4;stroke-opacity:1;stroke-dasharray:none"
             sodipodi:type="arc" />
        </g>
        <g
           id="g4374">
          <path
             sodipodi:nodetypes="cccc"
             inkscape:connector-curvature="0"
             id="path3767-7"
             d="m 330,360.4741 c -3.98863,-17.88928 5.34812,-37.21932 10,-50 4.55804,12.84345 14.05926,33.70963 10,50 z"
             style="fill:#c47230;fill-opacity:1;stroke:#ffffff;stroke-width:1px;stroke-linecap:butt;stroke-linejoin:miter;stroke-opacity:1" />
        </g>
        <path
           sodipodi:type="arc"
           style="fill:#c47230;fill-opacity:1;stroke:#ffffff;stroke-width:2;stroke-miterlimit:4;stroke-opacity:1;stroke-dasharray:none"
           id="path3765-1"
           sodipodi:cx="220"
           sodipodi:cy="302.36218"
           sodipodi:rx="11.888083"
           sodipodi:ry="11.888083"
           d="m 231.88808,302.36218 c 0,6.56561 -5.32247,11.88809 -11.88808,11.88809 -6.56561,0 -11.88808,-5.32248 -11.88808,-11.88809 0,-6.5656 5.32247,-11.88808 11.88808,-11.88808 6.56561,0 11.88808,5.32248 11.88808,11.88808 z"
           transform="translate(120,8.1119165)" />
        <g
           id="g4377">
          <path
             sodipodi:nodetypes="cccc"
             inkscape:connector-curvature="0"
             id="path3767-2"
             d="m 360,360.4741 c -3.98863,-17.88928 5.34812,-37.21932 10,-50 4.55804,12.84345 14.05926,33.70963 10,50 z"
             style="fill:#000000;fill-opacity:1;stroke:#ffffff;stroke-width:1px;stroke-linecap:butt;stroke-linejoin:miter;stroke-opacity:1" />
          <path
             transform="translate(150,8.1119165)"
             d="m 231.88808,302.36218 c 0,6.56561 -5.32247,11.88809 -11.88808,11.88809 -6.56561,0 -11.88808,-5.32248 -11.88808,-11.88809 0,-6.5656 5.32247,-11.88808 11.88808,-11.88808 6.56561,0 11.88808,5.32248 11.88808,11.88808 z"
             sodipodi:ry="11.888083"
             sodipodi:rx="11.888083"
             sodipodi:cy="302.36218"
             sodipodi:cx="220"
             id="path3765-5"
             style="fill:#000000;fill-opacity:1;stroke:#ffffff;stroke-width:2;stroke-miterlimit:4;stroke-opacity:1;stroke-dasharray:none"
             sodipodi:type="arc" />
        </g>
        <g
           id="g4381">
          <path
             sodipodi:nodetypes="cccc"
             inkscape:connector-curvature="0"
             id="path3767-1"
             d="m 390,360.4741 c -3.98863,-17.88928 5.34812,-37.21932 10,-50 4.55804,12.84345 14.05926,33.70963 10,50 z"
             style="fill:#000000;fill-opacity:1;stroke:#ffffff;stroke-width:1px;stroke-linecap:butt;stroke-linejoin:miter;stroke-opacity:1" />
          <path
             transform="translate(180,8.1119165)"
             d="m 231.88808,302.36218 c 0,6.56561 -5.32247,11.88809 -11.88808,11.88809 -6.56561,0 -11.88808,-5.32248 -11.88808,-11.88809 0,-6.5656 5.32247,-11.88808 11.88808,-11.88808 6.56561,0 11.88808,5.32248 11.88808,11.88808 z"
             sodipodi:ry="11.888083"
             sodipodi:rx="11.888083"
             sodipodi:cy="302.36218"
             sodipodi:cx="220"
             id="path3765-6"
             style="fill:#000000;fill-opacity:1;stroke:#ffffff;stroke-width:2;stroke-miterlimit:4;stroke-opacity:1;stroke-dasharray:none"
             sodipodi:type="arc" />
        </g>
      </g>
      <rect
         y="273.884"
         x="229.28571"
         height="157.58723"
         width="440.43713"
         id="rect4292"
         style="opacity:0.50230091;fill:#e4e4e4;fill-opacity:1;stroke:#8f8b8b;stroke-width:3.92731929;stroke-miterlimit:4;stroke-opacity:1;stroke-dasharray:none" />
      <g
         transform="matrix(2,0,0,2,-170.71429,-97.884788)"
         id="g4462">
        <path
           style="fill:#22eecb;fill-opacity:1;stroke:#ffffff;stroke-width:1px;stroke-linecap:butt;stroke-linejoin:miter;stroke-opacity:1"
           d="m 400,282.36218 c -3.98863,-17.88928 5.34812,-37.21932 10,-50 4.55804,12.84345 14.05926,33.70963 10,50 z"
           id="path3767-22-8-3"
           inkscape:connector-curvature="0"
           sodipodi:nodetypes="cccc" />
        <path
           sodipodi:type="arc"
           style="fill:#22eecb;fill-opacity:1;stroke:#ffffff;stroke-width:2;stroke-miterlimit:4;stroke-opacity:1;stroke-dasharray:none"
           id="path3765-23-6-3"
           sodipodi:cx="220"
           sodipodi:cy="302.36218"
           sodipodi:rx="11.888083"
           sodipodi:ry="11.888083"
           d="m 231.88808,302.36218 c 0,6.56561 -5.32247,11.88809 -11.88808,11.88809 -6.56561,0 -11.88808,-5.32248 -11.88808,-11.88809 0,-6.5656 5.32247,-11.88808 11.88808,-11.88808 6.56561,0 11.88808,5.32248 11.88808,11.88808 z"
           transform="translate(190,-69.999997)" />
      </g>
    </g>
  </g>
</svg>
